<?xml version="1.0" encoding="utf-8"?>
<!-- Generator: Adobe Illustrator 28.0.0, SVG Export Plug-In . SVG Version: 6.00 Build 0)  -->
<svg version="1.1" id="Layer_1" xmlns="http://www.w3.org/2000/svg" xmlns:xlink="http://www.w3.org/1999/xlink" x="0px" y="0px"
	 viewBox="0 0 198.4 85" style="enable-background:new 0 0 198.4 85;" xml:space="preserve">
<style type="text/css">
	.st0{fill:#4D67B0;}
</style>
<path class="st0" d="M28.5,11.2l-7.4-9v67.9h-8.2c0-1.6,0-3.2,0-4.8l0.4-53.7l-6.5,8.2v56.4h21.6V35h7.7v41.6l6.4,6.1V28.3
	l-13.9,0.1v-8.2h37.7v8.3l-15.6-0.1V76h6.2V35h15.2V11.2H28.5z"/>
<rect x="30.9" y="26.1" class="st0" width="14.1" height="1.3"/>
<path class="st0" d="M45,27v32.5c-0.5,0.5-0.8,1-1.3,1.6V27H45z"/>
<path class="st0" d="M50.3,26.8v25.3l0,0c0-1.1,0-2.1,0-3.2c-0.4,0.6-0.9,1.1-1.3,1.7V26.8H50.3z"/>
<path class="st0" d="M48,38.9v14.4c-0.6,0.5-1,1.1-1.6,1.6v-16C46.4,38.9,48,38.9,48,38.9z"/>
<path class="st0" d="M50.3,46.9c0,1,0,1.9,0,2.9c0,11,0,21.9,0,32.9h-6.6V60c0.1-0.1,0.1-0.2,0.2-0.3c0.1-0.3,0.3-0.5,0.4-0.8
	c0.4-0.8,0.9-1.7,1.2-2.5c0.1-0.3,0.3-0.5,0.4-0.8c0.3-0.5,0.4-1,0.7-1.4c0.3-0.5,0.4-1,0.7-1.5c0.3-0.5,0.5-1,0.8-1.5
	s0.4-1,0.7-1.5c0.3-0.4,0.4-0.9,0.7-1.3C49.8,47.9,50,47.4,50.3,46.9z"/>
<path class="st0" d="M20.7,2.2v22.4c-0.1,0.2-0.2,0.4-0.3,0.6c-0.2,0.4-0.4,0.8-0.7,1.2c-0.4,0.8-0.9,1.6-1.3,2.4
	c-0.1,0.3-0.3,0.6-0.4,0.8c-0.5,1-1.1,2-1.6,3c-0.2,0.3-0.3,0.6-0.5,0.9c-0.4,0.7-0.8,1.5-1.2,2.2c-0.3,0.5-0.6,1.1-0.8,1.6
	c0,0,0,0,0,0.1c0-11.8,0-23.5,0-35.3L20.7,2.2L20.7,2.2z"/>
<path class="st0" d="M15,24.5v19.4h-1.1V26.5C14.2,25.8,14.6,25.2,15,24.5z"/>
<path class="st0" d="M81.5,65.2c-0.1,3.3-1.3,10.5-10.1,10.5c-8.7,0-10.6-6.4-10.6-16.5c0-11.5,3.6-16.3,10.9-16.3
	c8.4,0,9.7,6.5,9.8,10.2h-7.2c-0.1-1.8-0.1-4.5-2.6-4.5s-3.1,2.9-3.1,10.6c0,6.8,0.4,10.8,3,10.8c2.5,0,2.6-2.9,2.7-4.8H81.5z"/>
<path class="st0" d="M101.7,69c0,1.7,0.1,4.8,0.2,6.1h-6.5c-0.1-0.5-0.3-1.5-0.3-2.1c-1.2,1.7-2.9,2.6-5.5,2.6
	c-4.4,0-6.5-3.4-6.5-7.6c0-5.4,3.6-8.1,9.6-8.1c0.7,0,1.5,0,2,0v-2.4c0-1.3-0.2-2.5-1.9-2.5c-1.6,0-1.9,1-2,2.8h-6.7
	c0.1-4.4,2.2-7.8,9-7.8c5.7,0,8.7,2.3,8.7,7.4V69H101.7z M94.8,64.4c-0.4-0.1-0.9-0.1-1.4-0.1c-2.5,0-3.3,1.3-3.3,3
	c0,1.4,0.6,2.6,2.1,2.6c2.1,0,2.5-1.6,2.5-4.4L94.8,64.4L94.8,64.4z"/>
<path class="st0" d="M105.2,58.2c0-5.1,0-6.5,0-7.7h6.9c0.1,0.5,0.2,1.6,0.2,2.3c0.8-1.2,2.4-2.7,5.4-2.7c4.2,0,6.2,2.7,6.2,7.4
	v17.6h-7.2V58.7c0-1.9-0.3-3-2-3c-1.5,0-2.3,0.8-2.3,3.6v15.8h-7.2L105.2,58.2L105.2,58.2z"/>
<path class="st0" d="M135.7,49.9h-6.2v-6h19.7v6H143v25.7h-7.3V49.9z"/>
<path class="st0" d="M157.8,42.4v10.7c0.9-1.5,2.6-2.6,5.4-2.6c4.3,0,6.1,2.8,6.1,7.6v17.5h-7.2V59.2c0-1.9-0.3-3-2.1-3
	s-2.2,1.3-2.2,3.8v15.6h-7.2V42.4H157.8z"/>
<path class="st0" d="M191.4,63c0,9.8-3.8,13-9.9,13c-5.8,0-9.6-3.2-9.6-12.9c0-9.3,4.2-12.6,9.9-12.6
	C187.7,50.5,191.4,54.1,191.4,63z M179.2,63.1c0,5.3,0.5,7.4,2.6,7.4c1.9,0,2.4-2.2,2.4-7.4c0-5.4-0.6-7-2.4-7
	S179.2,57.8,179.2,63.1z"/>
<path class="st0" d="M83.4,28.3c0,4.3-0.9,6.8-5.9,6.8c-1.1,0-1.9-0.1-2.4-0.2v-4.1c0.4,0,0.8,0.1,1.3,0.1c1.6,0,1.8-0.7,1.8-2.1V12
	h5.2V28.3z"/>
<path class="st0" d="M99.8,25.7c0,7-2.8,9.4-7.1,9.4c-4.2,0-6.9-2.3-6.9-9.3c0-6.7,3-9.1,7.1-9.1C97.1,16.7,99.8,19.3,99.8,25.7z
	 M91,25.8c0,3.8,0.4,5.3,1.8,5.3c1.4,0,1.7-1.6,1.7-5.3c0-3.9-0.4-5-1.8-5C91.5,20.7,91,22,91,25.8z"/>
<path class="st0" d="M102.3,10.9h5.2v7.7c0.6-1,1.8-1.9,3.7-1.9c3.5,0,5,2.8,5,8.6c0,6.4-1.5,9.7-5.5,9.7c-2.2,0-2.9-1-3.4-1.9
	c0,0.4,0,1.1-0.1,1.6h-5c0-1.4,0-3.3,0-4.7V10.9H102.3z M111,25.6c0-3.4-0.3-4.7-1.8-4.7c-1.4,0-1.9,1-1.9,5.1s0.4,5.1,1.8,5.1
	C110.6,31,111,29.7,111,25.6z"/>
<path class="st0" d="M131.5,11v23.7h-5.4V11H131.5z"/>
<path class="st0" d="M138.3,15.4h-4.7v-4.5h14.8v4.5h-4.7v19.3h-5.4L138.3,15.4L138.3,15.4z"/>
<path class="st0" d="M20.7,22.1v47h-1.1V26.9C19.9,25.3,20.3,23.7,20.7,22.1z"/>
<path class="st0" d="M18.2,18.3v32.9C18,51.1,17.8,51,17.6,51s-0.3,0-0.5,0.1V21.8C17.4,20.6,17.8,19.4,18.2,18.3z"/>
<path class="st0" d="M18.2,50.6c-0.2-0.1-0.4-0.1-0.6-0.1s-0.3,0-0.5,0.1c-0.6,0.2-1.1,0.8-1.1,1.5c0,0.9,0.7,1.6,1.6,1.6
	s1.6-0.7,1.6-1.6C19.2,51.4,18.8,50.8,18.2,50.6z M17.6,53.2c-0.6,0-1.1-0.5-1.1-1.1c0-0.4,0.2-0.8,0.6-1c0.2-0.1,0.3-0.1,0.5-0.1
	s0.4,0.1,0.6,0.2c0.3,0.2,0.5,0.5,0.5,0.9C18.7,52.7,18.2,53.2,17.6,53.2z"/>
<rect x="16.9" y="54.5" class="st0" width="1.1" height="14.6"/>
<path class="st0" d="M17.5,69.8L17.5,69.8c-0.6,0-1-0.4-1-1l0,0c0-0.6,0.4-1,1-1l0,0c0.6,0,1,0.4,1,1l0,0
	C18.5,69.4,18,69.8,17.5,69.8z"/>
<rect x="49" y="25.7" class="st0" width="15.7" height="1.3"/>
<rect x="13.9" y="46" class="st0" width="1.1" height="23.1"/>
<path class="st0" d="M14.5,47.3L14.5,47.3c-0.6,0-1-0.4-1-1l0,0c0-0.6,0.4-1,1-1l0,0c0.6,0,1,0.4,1,1l0,0
	C15.4,46.9,15,47.3,14.5,47.3z"/>
<path class="st0" d="M30.6,27.8L30.6,27.8c-0.6,0-1.1-0.5-1.1-1.1l0,0c0-0.6,0.5-1.1,1.1-1.1l0,0c0.6,0,1.1,0.5,1.1,1.1l0,0
	C31.7,27.3,31.2,27.8,30.6,27.8z"/>
<rect x="30.2" y="22.5" class="st0" width="18.7" height="1.3"/>
<rect x="46.6" y="22.9" class="st0" width="1.3" height="14"/>
<rect x="47.9" y="22.5" class="st0" width="15.9" height="1.3"/>
<path class="st0" d="M64.3,24.3L64.3,24.3c-0.6,0-1.1-0.5-1.1-1.1l0,0c0-0.6,0.5-1.1,1.1-1.1l0,0c0.6,0,1.1,0.5,1.1,1.1l0,0
	C65.4,23.8,64.9,24.3,64.3,24.3z"/>
<path class="st0" d="M47.2,39.7L47.2,39.7c-0.6,0-1.1-0.5-1.1-1.1l0,0c0-0.6,0.5-1.1,1.1-1.1l0,0c0.6,0,1.1,0.5,1.1,1.1l0,0
	C48.3,39.2,47.8,39.7,47.2,39.7z"/>
</svg>
