<?xml version="1.0" encoding="utf-8"?>
<!-- Generator: Adobe Illustrator 28.0.0, SVG Export Plug-In . SVG Version: 6.00 Build 0)  -->
<svg version="1.1" id="Layer_1" xmlns="http://www.w3.org/2000/svg" xmlns:xlink="http://www.w3.org/1999/xlink" x="0px" y="0px"
	 viewBox="0 0 283.5 85" style="enable-background:new 0 0 283.5 85;" xml:space="preserve">
<style type="text/css">
	.st0{fill:#3C65F5;}
</style>
<path class="st0" d="M80.7,12.1l-7.4-9V71h-8.2c0-1.6,0-3.2,0-4.8l0.4-53.7L59,20.7v56.4h21.6V35.9h7.7v41.6l6.4,6.1V29.2l-13.9,0.1
	v-8.2h37.7v8.3l-15.6-0.1v47.6h6.2v-41h15.2V12.1H80.7z"/>
<rect x="83.1" y="27" class="st0" width="14.1" height="1.3"/>
<path class="st0" d="M97.2,27.9v32.5c-0.5,0.5-0.8,1-1.3,1.6V27.9H97.2z"/>
<path class="st0" d="M102.5,27.7V53l0,0c0-1.1,0-2.1,0-3.2c-0.4,0.6-0.9,1.1-1.3,1.7V27.7H102.5z"/>
<path class="st0" d="M100.2,39.8v14.4c-0.6,0.5-1,1.1-1.6,1.6v-16H100.2z"/>
<path class="st0" d="M102.5,47.8c0,1,0,1.9,0,2.9c0,11,0,21.9,0,32.9h-6.6V60.9c0.1-0.1,0.1-0.2,0.2-0.3c0.1-0.3,0.3-0.5,0.4-0.8
	c0.4-0.8,0.9-1.7,1.2-2.5c0.1-0.3,0.3-0.5,0.4-0.8c0.3-0.5,0.4-1,0.7-1.4c0.3-0.5,0.4-1,0.7-1.5c0.3-0.5,0.5-1,0.8-1.5
	s0.4-1,0.7-1.5c0.3-0.4,0.4-0.9,0.7-1.3C102,48.8,102.2,48.3,102.5,47.8z"/>
<path class="st0" d="M72.9,3.1v22.4c-0.1,0.2-0.2,0.4-0.3,0.6c-0.2,0.4-0.4,0.8-0.7,1.2c-0.4,0.8-0.9,1.6-1.3,2.4
	c-0.1,0.3-0.3,0.6-0.4,0.8c-0.5,1-1.1,2-1.6,3c-0.2,0.3-0.3,0.6-0.5,0.9c-0.4,0.7-0.8,1.5-1.2,2.2c-0.3,0.5-0.6,1.1-0.8,1.6
	c0,0,0,0,0,0.1c0-11.8,0-23.5,0-35.3L72.9,3.1L72.9,3.1z"/>
<path class="st0" d="M67.2,25.4v19.4h-1.1V27.4C66.4,26.7,66.8,26.1,67.2,25.4z"/>
<path class="st0" d="M133.7,66.1c-0.1,3.3-1.3,10.5-10.1,10.5c-8.7,0-10.6-6.4-10.6-16.5c0-11.5,3.6-16.3,10.9-16.3
	c8.4,0,9.7,6.5,9.8,10.2h-7.2c-0.1-1.8-0.1-4.5-2.6-4.5s-3.1,2.9-3.1,10.6c0,6.8,0.4,10.8,3,10.8c2.5,0,2.6-2.9,2.7-4.8H133.7z"/>
<path class="st0" d="M153.9,69.9c0,1.7,0.1,4.8,0.2,6.1h-6.5c-0.1-0.5-0.3-1.5-0.3-2.1c-1.2,1.7-2.9,2.6-5.5,2.6
	c-4.4,0-6.5-3.4-6.5-7.6c0-5.4,3.6-8.1,9.6-8.1c0.7,0,1.5,0,2,0v-2.4c0-1.3-0.2-2.5-1.9-2.5c-1.6,0-1.9,1-2,2.8h-6.7
	c0.1-4.4,2.2-7.8,9-7.8c5.7,0,8.7,2.3,8.7,7.4v11.6H153.9z M147,65.3c-0.4-0.1-0.9-0.1-1.4-0.1c-2.5,0-3.3,1.3-3.3,3
	c0,1.4,0.6,2.6,2.1,2.6c2.1,0,2.5-1.6,2.5-4.4L147,65.3L147,65.3z"/>
<path class="st0" d="M157.4,59.1c0-5.1,0-6.5,0-7.7h6.9c0.1,0.5,0.2,1.6,0.2,2.3c0.8-1.2,2.4-2.7,5.4-2.7c4.2,0,6.2,2.7,6.2,7.4V76
	h-7.2V59.6c0-1.9-0.3-3-2-3c-1.5,0-2.3,0.8-2.3,3.6V76h-7.2L157.4,59.1L157.4,59.1z"/>
<path class="st0" d="M187.9,50.8h-6.2v-6h19.7v6h-6.2v25.7h-7.3V50.8z"/>
<path class="st0" d="M210,43.3V54c0.9-1.5,2.6-2.6,5.4-2.6c4.3,0,6.1,2.8,6.1,7.6v17.5h-7.2V60.1c0-1.9-0.3-3-2.1-3
	s-2.2,1.3-2.2,3.8v15.6h-7.2V43.3H210z"/>
<path class="st0" d="M243.6,63.9c0,9.8-3.8,13-9.9,13c-5.8,0-9.6-3.2-9.6-12.9c0-9.3,4.2-12.6,9.9-12.6
	C239.9,51.4,243.6,55,243.6,63.9z M231.4,64c0,5.3,0.5,7.4,2.6,7.4c1.9,0,2.4-2.2,2.4-7.4c0-5.4-0.6-7-2.4-7S231.4,58.7,231.4,64z"
	/>
<path class="st0" d="M135.6,29.2c0,4.3-0.9,6.8-5.9,6.8c-1.1,0-1.9-0.1-2.4-0.2v-4.1c0.4,0,0.8,0.1,1.3,0.1c1.6,0,1.8-0.7,1.8-2.1
	V12.9h5.2V29.2z"/>
<path class="st0" d="M152,26.6c0,7-2.8,9.4-7.1,9.4c-4.2,0-6.9-2.3-6.9-9.3c0-6.7,3-9.1,7.1-9.1C149.3,17.6,152,20.2,152,26.6z
	 M143.2,26.7c0,3.8,0.4,5.3,1.8,5.3c1.4,0,1.7-1.6,1.7-5.3c0-3.9-0.4-5-1.8-5C143.7,21.6,143.2,22.9,143.2,26.7z"/>
<path class="st0" d="M154.5,11.8h5.2v7.7c0.6-1,1.8-1.9,3.7-1.9c3.5,0,5,2.8,5,8.6c0,6.4-1.5,9.7-5.5,9.7c-2.2,0-2.9-1-3.4-1.9
	c0,0.4,0,1.1-0.1,1.6h-5c0-1.4,0-3.3,0-4.7V11.8H154.5z M163.2,26.5c0-3.4-0.3-4.7-1.8-4.7c-1.4,0-1.9,1-1.9,5.1s0.4,5.1,1.8,5.1
	C162.8,31.9,163.2,30.6,163.2,26.5z"/>
<path class="st0" d="M183.7,11.9v23.7h-5.4V11.9H183.7z"/>
<path class="st0" d="M190.5,16.3h-4.7v-4.5h14.8v4.5h-4.7v19.3h-5.4L190.5,16.3L190.5,16.3z"/>
<text transform="matrix(1 0 0 1 32.4244 204.3899)" style="font-family:'MyriadPro-Regular'; font-size:12px;">chỉnh lại mã màu 3C65F5 thử đi</text>
<path class="st0" d="M72.9,23v47h-1.1V27.8C72.1,26.2,72.5,24.6,72.9,23z"/>
<path class="st0" d="M70.4,19.2v32.9c-0.2-0.1-0.4-0.2-0.6-0.2c-0.2,0-0.3,0-0.5,0.1V22.7C69.6,21.5,70,20.3,70.4,19.2z"/>
<path class="st0" d="M70.4,51.5c-0.2-0.1-0.4-0.1-0.6-0.1c-0.2,0-0.3,0-0.5,0.1c-0.6,0.2-1.1,0.8-1.1,1.5c0,0.9,0.7,1.6,1.6,1.6
	c0.9,0,1.6-0.7,1.6-1.6C71.4,52.3,71,51.7,70.4,51.5z M69.8,54.1c-0.6,0-1.1-0.5-1.1-1.1c0-0.4,0.2-0.8,0.6-1
	c0.2-0.1,0.3-0.1,0.5-0.1c0.2,0,0.4,0.1,0.6,0.2c0.3,0.2,0.5,0.5,0.5,0.9C70.9,53.6,70.4,54.1,69.8,54.1z"/>
<rect x="69.1" y="55.4" class="st0" width="1.1" height="14.6"/>
<path class="st0" d="M69.7,70.7L69.7,70.7c-0.6,0-1-0.4-1-1l0,0c0-0.6,0.4-1,1-1l0,0c0.6,0,1,0.4,1,1l0,0
	C70.7,70.3,70.2,70.7,69.7,70.7z"/>
<rect x="101.2" y="26.6" class="st0" width="15.7" height="1.3"/>
<rect x="66.1" y="46.9" class="st0" width="1.1" height="23.1"/>
<path class="st0" d="M66.7,48.2L66.7,48.2c-0.6,0-1-0.4-1-1v0c0-0.6,0.4-1,1-1h0c0.6,0,1,0.4,1,1v0C67.6,47.8,67.2,48.2,66.7,48.2z"
	/>
<path class="st0" d="M82.8,28.7L82.8,28.7c-0.6,0-1.1-0.5-1.1-1.1v0c0-0.6,0.5-1.1,1.1-1.1h0c0.6,0,1.1,0.5,1.1,1.1v0
	C83.9,28.2,83.4,28.7,82.8,28.7z"/>
<rect x="82.4" y="23.4" class="st0" width="18.7" height="1.3"/>
<rect x="98.8" y="23.8" class="st0" width="1.3" height="14"/>
<rect x="100.1" y="23.4" class="st0" width="15.9" height="1.3"/>
<path class="st0" d="M116.5,25.2L116.5,25.2c-0.6,0-1.1-0.5-1.1-1.1v0c0-0.6,0.5-1.1,1.1-1.1l0,0c0.6,0,1.1,0.5,1.1,1.1v0
	C117.6,24.7,117.1,25.2,116.5,25.2z"/>
<path class="st0" d="M99.4,40.6L99.4,40.6c-0.6,0-1.1-0.5-1.1-1.1v0c0-0.6,0.5-1.1,1.1-1.1h0c0.6,0,1.1,0.5,1.1,1.1v0
	C100.5,40.1,100,40.6,99.4,40.6z"/>
</svg>
