<?xml version="1.0" encoding="utf-8"?>
<!-- Generator: Adobe Illustrator 28.0.0, SVG Export Plug-In . SVG Version: 6.00 Build 0)  -->
<svg version="1.1" id="Layer_1" xmlns="http://www.w3.org/2000/svg" xmlns:xlink="http://www.w3.org/1999/xlink" x="0px" y="0px"
	 viewBox="0 0 1417.3 1417.3" style="enable-background:new 0 0 1417.3 1417.3;" xml:space="preserve">
<style type="text/css">
	.st0{fill:#4D67B0;}
</style>
<path class="st0" d="M537.3,166.2L412.4,14.3v1145.9H274c0-27,0-54,0-81l6.8-906.2L171.1,311.4v951.8h364.5V567.9h129.9v702
	l108,102.9v-918L539,456.5V318.1h636.2v140.1l-263.3-1.7v803.3h104.6V567.9h256.5V166.2H537.3z"/>
<rect x="577.6" y="417.5" class="st0" width="238.2" height="22"/>
<path class="st0" d="M815.8,432.8v548.7c-8,8.8-13.3,17.7-21.3,26.5V432.8H815.8z"/>
<path class="st0" d="M905.2,429.9v427.3l0,0c0-18.6,0-35.3,0-53.9c-7.5,9.3-15,18.6-22.4,27.9V429.9H905.2z"/>
<path class="st0" d="M866,634.1v242.4c-9.9,8.9-16.4,17.8-26.3,26.7V634.1H866z"/>
<path class="st0" d="M905.2,768.7c0,16.9,0,32.1,0,48.9c0,185.6,0,369.6,0,555.2H793.7V989.8c1.5-1.7,1.5-3.4,3-5.1
	c1.5-5.1,4.5-8.4,6-13.5c7.5-13.5,15.1-28.7,21.1-42.2c1.5-5.1,4.5-8.4,6-13.5c4.5-8.4,7.5-16.9,12.1-23.6
	c4.5-8.4,7.5-16.9,12.1-25.3s9-16.9,13.6-25.3c4.5-8.4,7.5-16.9,12.1-25.3c4.5-6.8,7.5-15.2,12.1-21.9
	C896.2,785.6,900.7,777.1,905.2,768.7z"/>
<path class="st0" d="M405.7,14.3v378c-1.7,3.4-3.4,6.8-5.1,10.1c-3.4,6.8-6.8,13.5-11.8,20.3c-6.8,13.5-15.2,27-21.9,40.5
	c-1.7,5.1-5.1,10.1-6.8,13.5c-8.4,16.9-18.6,33.8-27,50.6c-3.4,5.1-5.1,10.1-8.4,15.2c-6.8,11.8-13.5,25.3-20.3,37.1
	c-5.1,8.4-10.1,18.6-13.5,27c0,0,0,0,0,1.7c0-199.1,0-396.6,0-595.7L405.7,14.3L405.7,14.3z"/>
<path class="st0" d="M309.5,390.7v327.4h-18.6V424.4C296,412.6,302.7,402.5,309.5,390.7z"/>
<path class="st0" d="M405.7,350.2v793.9h-18.6V431.8C392.2,404.6,398.9,377.4,405.7,350.2z"/>
<path class="st0" d="M363.5,286v554.9c-2.9-1.9-6.4-3-10.1-3c-3,0-5.9,0.7-8.4,2.2v-495C350,324.9,356.7,304.6,363.5,286z"/>
<path class="st0" d="M363.5,831.3c-3-1.2-6.6-1.9-10.1-1.9c-3,0-5.7,0.5-8.4,1.3c-11,3.4-18.6,13.5-18.6,25.7c0,15.2,11.8,27,27,27
	c15.2,0,27-11.8,27-27C380.4,844.8,373.4,835.2,363.5,831.3z M353.4,875c-10.1,0-18.6-8.4-18.6-18.6c0-7.1,4.2-13.3,10.1-16.4
	c2.5-1.5,5.4-2.2,8.4-2.2c3.7,0,7.3,1.2,10.1,3c5.1,3.4,8.4,9.1,8.4,15.5C371.9,866.6,363.5,875,353.4,875z"/>
<rect x="341.7" y="896.7" class="st0" width="18.6" height="246.9"/>
<path class="st0" d="M351,1155.5L351,1155.5c-9.3,0-16.8-7.5-16.8-16.8l0,0c0-9.3,7.5-16.8,16.8-16.8h0c9.3,0,16.8,7.5,16.8,16.8
	l0,0C367.9,1148,360.3,1155.5,351,1155.5z"/>
<rect x="882.8" y="410.1" class="st0" width="265.7" height="22.6"/>
<rect x="290.9" y="754" class="st0" width="18.6" height="390"/>
<path class="st0" d="M300.2,775.9L300.2,775.9c-9.3,0-16.8-7.5-16.8-16.8l0,0c0-9.3,7.5-16.8,16.8-16.8h0c9.3,0,16.8,7.5,16.8,16.8
	l0,0C317,768.4,309.5,775.9,300.2,775.9z"/>
<path class="st0" d="M573,446.3L573,446.3c-10.4,0-18.8-8.4-18.8-18.8v0c0-10.4,8.4-18.8,18.8-18.8h0c10.4,0,18.8,8.4,18.8,18.8v0
	C591.8,437.9,583.4,446.3,573,446.3z"/>
<rect x="565.8" y="357.2" class="st0" width="315.5" height="22.6"/>
<rect x="842.1" y="363.1" class="st0" width="22.4" height="237"/>
<rect x="864.5" y="357.2" class="st0" width="268.6" height="22.6"/>
<path class="st0" d="M852.9,647.9L852.9,647.9c-10.4,0-18.8-8.4-18.8-18.8v0c0-10.4,8.4-18.8,18.8-18.8l0,0
	c10.4,0,18.8,8.4,18.8,18.8l0,0C871.7,639.5,863.3,647.9,852.9,647.9z"/>
</svg>
